<svg width="100" height="100" viewBox="0 0 100 100" fill="none" xmlns="http://www.w3.org/2000/svg">
<g clip-path="url(#clip0_2_444)">
<path d="M38.0062 49.6976C36.6758 49.6976 35.5922 50.0976 34.7594 50.8906C33.9289 51.6844 33.5109 52.725 33.5109 54C33.5109 54.6601 33.6117 55.264 33.8195 55.8164C34.0358 56.3844 34.3624 56.9041 34.7804 57.3453C35.2101 57.8094 36.0742 58.4351 37.3586 59.2375C38.9398 60.2078 39.9719 60.9953 40.4687 61.6086C40.9656 62.2219 41.214 62.8664 41.214 63.5375C41.214 64.4344 40.9211 65.1547 40.3133 65.6922C39.7094 66.2289 38.9008 66.5008 37.8937 66.5008C36.8375 66.5008 35.9156 66.1226 35.1258 65.3773C34.332 64.6328 33.932 63.6476 33.9226 62.4086H33.432V66.9008H33.9226C34.0726 66.4734 34.2828 66.2562 34.5547 66.2562C34.6859 66.2562 34.9914 66.3453 35.4703 66.5156C36.6328 66.9312 37.5851 67.1351 38.3359 67.1351C39.6265 67.1351 40.7344 66.6773 41.65 65.7523C42.5687 64.8281 43.0328 63.7117 43.0328 62.4086C43.0328 61.3984 42.7273 60.4976 42.1289 59.7164C41.525 58.932 40.3594 58.0172 38.6133 56.9703C37.1125 56.0609 36.1359 55.325 35.6836 54.7484C35.2312 54.1719 35 53.5375 35 52.8383C35 52.0781 35.2781 51.4742 35.8242 51.0195C36.3672 50.5672 37.0789 50.3414 37.9758 50.3414C38.9765 50.3414 39.8164 50.6437 40.4781 51.2453C41.1406 51.8523 41.5219 52.6883 41.6344 53.7656H42.1289V49.8719H41.6719C41.6133 50.0734 41.5617 50.1984 41.5156 50.2562C41.4672 50.314 41.3812 50.3422 41.2445 50.3422C41.0883 50.3422 40.8047 50.2742 40.4023 50.1429C39.5383 49.85 38.7422 49.6976 38.0062 49.6976ZM54.0984 49.6976C52.475 49.6976 51.0008 50.0851 49.6672 50.8539C48.3336 51.6265 47.2781 52.6914 46.4969 54.0523C45.7211 55.4109 45.3304 56.857 45.3304 58.3953C45.3304 60.4609 46.0054 62.3047 47.3601 63.9187C48.7211 65.5336 50.3445 66.5406 52.2304 66.925C52.664 67.1508 53.2836 67.7336 54.0922 68.6828C54.9984 69.7453 55.7711 70.514 56.4054 70.9719C57.0233 71.4232 57.7126 71.7676 58.4445 71.9906C59.164 72.2109 59.9453 72.3172 60.7906 72.3172C61.8133 72.3172 62.732 72.1406 63.5375 71.7711L63.3578 71.3195C62.8778 71.4909 62.3714 71.5766 61.8617 71.5726C61.1508 71.5726 60.4281 71.3343 59.7047 70.8586C58.9812 70.3828 58.075 69.4734 57.0008 68.1336C56.4937 67.4898 56.1429 67.0836 55.9476 66.925C58.0101 66.5187 59.7109 65.5148 61.0351 63.9039C62.3594 62.2929 63.0187 60.4554 63.0187 58.3953C63.0187 55.9476 62.1547 53.8937 60.4367 52.2187C58.7187 50.5429 56.6039 49.6976 54.0984 49.6976ZM64.1414 49.6976L64.1687 50.232C65.2492 50.232 65.8531 50.5492 65.9875 51.1929C66.0398 51.425 66.064 51.8523 66.0703 52.4625L66.0609 64.1812C66.0484 65.057 65.9265 65.6156 65.6883 65.857C65.4508 66.0976 65.0445 66.25 64.4617 66.3086L64.4375 66.8398H75.2133L75.4906 64.1812H74.9969C74.8594 64.9047 74.5359 65.4234 74.0203 65.7164C73.507 66.0125 72.5984 66.1617 71.2859 66.1617H70.2633C69.082 66.1617 68.3984 65.732 68.2187 64.8679C68.1831 64.6839 68.1656 64.4968 68.1664 64.3094L68.2094 52.4625C68.2094 51.5898 68.3187 51.0039 68.5484 50.7172C68.7742 50.4304 69.1922 50.2718 69.7906 50.232L69.7656 49.6976H64.1414ZM54.2719 50.3414C56.1 50.3414 57.5984 51.0679 58.7515 52.5297C59.9078 53.9976 60.4789 56.0023 60.4789 58.5414C60.4789 60.9492 59.8992 62.8781 58.7367 64.3281C57.5734 65.7773 56.0234 66.5 54.0976 66.5C52.2484 66.5 50.75 65.7562 49.5992 64.2578C48.4492 62.7625 47.8781 60.8211 47.8781 58.4289C47.8781 55.9758 48.4554 54.0101 49.6148 52.5383C50.775 51.0742 52.3281 50.3414 54.2719 50.3414ZM79.0554 52.8625C78.7961 52.8625 78.5914 52.9539 78.4453 53.1312C78.289 53.3109 78.2437 53.5273 78.2953 53.7898C78.3476 54.0492 78.4937 54.2695 78.7226 54.4617C78.9453 54.6476 79.1929 54.7484 79.4554 54.7484C79.5692 54.7526 79.6822 54.7286 79.7844 54.6786C79.8866 54.6286 79.9749 54.5541 80.0414 54.4617C80.182 54.2695 80.2242 54.0492 80.1726 53.7898C80.1159 53.5306 79.9726 53.2983 79.7664 53.1312C79.5686 52.9604 79.3167 52.8652 79.0554 52.8625ZM86.1633 54.6593C85.7203 56.3875 84.75 57.3234 83.264 57.4734L83.2797 57.9679H85.0156L84.982 63.8242C84.9851 64.825 85.0133 65.4906 85.0859 65.8297C85.257 66.6414 85.7844 67.0562 86.6664 67.0562C87.9422 67.0562 89.282 66.275 90.6797 64.7094L90.2578 64.3461C89.2484 65.3742 88.3539 65.8906 87.5726 65.8906C87.0906 65.8906 86.7945 65.6156 86.682 65.0664C86.653 64.9113 86.6396 64.7538 86.6422 64.5961L86.6578 57.9679H89.3094L89.282 57.1804H86.6664V54.6601L86.1633 54.6593ZM96.4172 56.8664C94.9336 56.8664 93.7281 57.5929 92.7883 59.0304C91.8578 60.4703 91.5679 62.0664 91.9336 63.8242C92.1508 64.8523 92.5812 65.6492 93.2398 66.214C93.8961 66.775 94.732 67.0531 95.7273 67.0531C96.6547 67.0531 97.9461 66.8179 98.4922 66.3422C99.0351 65.8687 99.539 65.0969 100.003 64.0406L99.6304 63.65C98.8883 65.0172 97.3961 65.707 96.2711 65.707C94.7203 65.707 93.7742 64.8523 93.4195 63.1562C93.3714 62.9264 93.337 62.694 93.3164 62.4601C95.1601 62.1672 96.5547 61.6476 97.4945 60.8976C98.4398 60.1468 99.3836 59.3476 99.2062 58.5078C99.1123 58.0294 98.8407 57.6042 98.4461 57.3179C98.0437 57.0218 97 56.8664 96.4172 56.8664ZM80.2062 56.9273L77.0109 57.6656V58.2398L78.1156 58.1023C78.6531 58.1023 78.9672 58.3429 79.0679 58.8289C79.0984 58.9929 79.1226 59.2195 79.1289 59.5062L79.0922 64.764C79.0828 65.4875 79.0039 65.9117 78.8422 66.0398C78.6804 66.1648 78.2531 66.2289 77.557 66.2289L77.5359 66.7265H82.6078L82.5984 66.2289C81.8968 66.2289 81.439 66.1742 81.2344 66.0648C81.0359 65.9547 80.8961 65.7594 80.8351 65.457C80.7922 65.2406 80.7711 64.8648 80.7679 64.3461L80.7836 56.9273H80.2062ZM95.6047 57.9008C95.9133 57.9008 96.2125 58.0195 96.5109 58.2547C96.8109 58.489 96.9906 58.7547 97.0484 59.039C97.3383 60.4336 96.1054 61.4008 93.332 61.9383C93.2554 60.9187 93.4297 59.9945 93.8781 59.1609C94.3234 58.325 94.9031 57.9008 95.6047 57.9008Z" fill="white"/>
<path d="M30.8531 29.6391H3.35077C1.50702 29.6391 -0.000793457 31.1555 -0.000793457 33.0086V63.511C-0.000793457 65.3626 1.50702 66.8797 3.35077 66.8797H21.4633C21.2586 57.8157 24.3351 40.2258 30.8539 29.636L30.8531 29.6391Z" fill="#0B7FCC"/>
<path d="M29.8492 30.6211H3.35078C2.71936 30.6228 2.11446 30.8751 1.66908 31.3227C1.22371 31.7703 0.974323 32.3764 0.975775 33.0078V61.2852C6.97968 58.9688 15.9852 56.9664 22.2141 57.0617C23.468 50.4758 27.1453 37.5758 29.8492 30.6172V30.6211Z" fill="url(#paint0_linear_2_444)"/>
<path d="M37.2648 28.6374C35.382 26.9499 33.0992 27.6273 30.8531 29.6351C30.5172 29.9343 30.1812 30.264 29.8492 30.6179C26.0008 34.7289 22.4273 42.3367 21.3195 48.1499C21.7492 49.0288 22.0883 50.1546 22.3117 51.0156C22.4202 51.4447 22.5197 51.876 22.6101 52.3093C22.6101 52.3093 22.5734 52.1749 22.4336 51.7632L22.3383 51.4913C22.3216 51.4427 22.3023 51.3949 22.2804 51.3484C22.0304 50.7593 21.3351 49.5203 21.0297 48.9804C20.787 49.6947 20.5591 50.4138 20.3461 51.1374C21.225 52.7609 21.7617 55.5476 21.7617 55.5476C21.7617 55.5476 21.7187 55.3648 21.4961 54.739C21.2976 54.1804 20.3187 52.4531 20.0836 52.0468C19.6867 53.5242 19.5312 54.5187 19.6711 54.7632C19.9492 55.2335 20.2148 56.0421 20.4469 56.9429C20.9687 58.9624 21.3281 61.4195 21.3281 61.4195L21.3594 61.8335C21.2919 63.5169 21.3263 65.2028 21.4625 66.882C21.6344 68.9843 21.9625 70.7914 22.375 71.7617L22.6594 71.6054C22.0484 69.6992 21.8015 67.1992 21.9086 64.3187C22.0726 59.9148 23.0804 54.6015 24.9414 49.0687C28.0914 40.7093 32.4523 34.0054 36.4469 30.8031C32.8062 34.1117 27.8804 44.8148 26.4039 48.782C24.7531 53.2156 23.5844 57.382 22.8765 61.3757C24.0969 57.6343 28.0312 56.0265 28.0312 56.0265C28.0312 56.0265 29.9594 53.6335 32.2148 50.2101C30.8656 50.521 28.6445 51.0523 27.9023 51.3632C26.8039 51.8273 26.5117 51.9859 26.5117 51.9859C26.5117 51.9859 30.0633 49.8132 33.1054 48.8242C37.2961 42.1898 41.8617 32.7624 37.2656 28.6367" fill="white"/>
</g>
<defs>
<linearGradient id="paint0_linear_2_444" x1="17.6247" y1="31.2458" x2="17.6247" y2="59.5788" gradientUnits="userSpaceOnUse">
<stop stop-color="#95D7F4"/>
<stop offset="0.92" stop-color="#0F7FCC"/>
<stop offset="1" stop-color="#0F7FCC"/>
</linearGradient>
<clipPath id="clip0_2_444">
<rect width="100" height="100" fill="white"/>
</clipPath>
</defs>
</svg>
